<svg width="40" height="40" viewBox="0 0 40 40" fill="none" xmlns="http://www.w3.org/2000/svg">
    <rect width="40" height="40" rx="12" fill="#E9FFC4"/>
    <path d="M19.4596 9.83966C20.1175 9.82773 20.8862 9.86649 21.5536 9.88349L24.7149 9.95148L26.8255 9.9889C27.5318 10.0015 28.2345 10.0082 28.9333 10.1238C29.5376 10.2184 30.1193 10.4241 30.649 10.7306C31.0698 10.7302 31.5039 10.7535 31.9253 10.7675L34.0969 10.8409C34.5355 10.8564 36.7607 10.8911 36.9908 10.992C37.043 11.0859 36.8583 11.1662 36.783 11.1986C35.0773 11.9282 33.345 12.5897 31.6787 13.4099C30.9992 13.7443 30.2522 14.1363 29.7488 14.7165C29.5573 14.9372 29.4169 15.2616 29.3542 15.5458C29.2741 15.9098 29.2897 16.2922 29.2821 16.6635C29.2636 17.5742 29.1621 18.4992 28.8526 19.3609C28.2402 21.167 26.8018 22.4866 25.1015 23.2895C23.2264 24.1746 20.9109 24.5169 18.9129 23.8218C19.3011 23.6663 19.7734 23.4898 20.1489 23.3176C19.552 23.3808 18.7156 23.4676 18.1323 23.569C18.1009 23.3841 18.0608 22.9675 17.8832 22.891C17.8211 22.9371 17.0778 24.5974 16.983 24.8126C21.1746 25.8555 25.5753 26.2953 29.3388 28.5915C29.7402 28.8363 30.654 29.4327 30.9516 29.7581L28.5247 29.761C27.2712 28.7481 26.3836 28.1686 24.8432 27.7067C25.1702 27.971 25.5051 28.2726 25.822 28.5485C26.2846 28.9464 26.7435 29.3482 27.1988 29.7542L25.0109 29.7614C24.8833 29.593 24.6482 29.3234 24.5107 29.164C24.1284 28.7211 23.51 27.9396 22.9711 27.7269C22.579 27.8094 22.2636 28.1739 21.969 28.4362C21.7062 28.6667 21.4406 28.894 21.1722 29.1181C20.8846 28.9034 20.5418 28.5933 20.2861 28.3417C20.6008 27.9328 21.2088 27.2711 21.565 26.8914C21.4158 26.8864 21.2593 26.8728 21.1099 26.8609C20.0804 26.7787 19.0466 26.721 18.0176 26.634C17.1467 26.6111 16.221 26.4699 15.3489 26.4076C15.1231 26.3914 14.869 26.313 14.736 26.1157C14.3584 25.5553 14.7999 24.9017 14.9302 24.3368C15.0142 23.982 15.0548 23.6444 15.1071 23.2893C14.5069 23.7815 13.8919 24.348 13.3046 24.8617C13.0878 25.0514 12.6227 25.4669 12.4649 25.6708C12.6357 26.0121 13.2061 26.4137 13.5197 26.6596L14.8077 27.6672C15.1238 27.6716 15.4546 27.6721 15.7676 27.7072C17.196 27.8673 18.6019 28.3755 19.8786 29.0214C20.2551 29.212 20.8649 29.5112 21.2035 29.7544L10.1944 29.7568C10.4185 28.6665 12.0172 28.2009 12.9636 27.9677C12.2723 27.4021 11.4909 26.8919 10.8523 26.2642C10.6641 26.0793 10.4925 25.7 10.6485 25.4482C11.2197 24.5262 11.863 23.6512 12.433 22.7256C11.8589 22.5943 11.1671 22.4918 10.5693 22.3685C9.16328 22.0902 7.76581 21.7252 6.40928 21.2624C6.16002 21.1773 5.18899 20.9244 5.34388 20.5698C5.55106 20.0956 6.01395 19.5823 6.34556 19.1741C8.19908 16.8928 10.2942 14.7417 12.9176 13.353C14.807 12.3424 17.285 11.6283 19.4187 12.2413C20.1282 12.4451 20.8949 12.8969 21.2503 13.5737C21.097 14.3226 20.5745 15.2111 20.0708 15.7917C20.4765 15.6229 20.8853 15.4332 21.2439 15.1637C21.7153 14.8093 22.3594 14.0996 22.0776 13.454C21.985 13.2415 21.7778 12.9998 21.6315 12.8159C22.0804 12.3881 22.4651 12.1843 23.0019 11.8866C22.4259 12.0124 21.7834 12.1246 21.1991 12.2434C20.9574 12.0565 20.7105 11.8422 20.4753 11.6447C20.9337 11.4316 21.9703 11.1566 22.4627 11.0334C22.1644 11.0162 21.7918 11.0254 21.4909 11.0255L19.8448 11.027C19.6792 10.8282 19.1514 10.1592 19.2993 9.89351C19.3527 9.84646 19.3886 9.84942 19.4596 9.83966Z" fill="#048575"/>
    <path d="M12.8347 15.552L12.846 15.5525L12.8593 15.57C12.4104 16.1793 11.711 16.8683 11.1857 17.4114C10.4334 17.5402 9.9854 17.5698 9.22823 17.5331L9.18671 17.5214L9.19441 17.4971C9.66346 17.2055 10.1983 16.9425 10.6462 16.6148C11.0626 16.3102 11.3764 16.1763 11.8433 15.9796C12.1757 15.8416 12.5062 15.699 12.8347 15.552Z" fill="#E9FFC4"/>
    <path d="M26.1303 17.5556C24.2601 16.2445 20.9609 18.2546 21.3195 20.5534C21.6234 22.4984 24.3159 22.3162 25.5416 21.4057C28.4316 19.2589 26.1975 15.2482 28.7799 13.0906C29.9964 12.0743 31.7595 12.2774 33.1617 11.7082C32.1071 11.7482 31.023 11.7469 29.9741 11.8739C29.9741 11.8739 28.7622 12.0203 28.1366 12.4343C26.4811 13.5298 26.2182 15.7598 26.1303 17.5556Z" fill="#E9FFC4"/>
    <path d="M15.7687 16.0884L15.7836 16.1064C15.6743 16.3749 15.1731 17.0079 14.9771 17.2151C14.0315 18.2144 12.6603 18.4908 11.3421 18.5233L11.3279 18.5168L11.3349 18.4964C11.8298 18.1991 12.3017 17.8653 12.7467 17.4976C12.8989 17.3726 13.2122 17.0679 13.3407 16.9817C13.4305 16.9214 13.9942 16.7369 14.1263 16.6898C14.6769 16.4979 15.2244 16.2974 15.7687 16.0884Z" fill="#E9FFC4"/>
    <path d="M18.6353 16.0722L18.6451 16.0998C17.9165 17.814 16.5393 18.3601 14.8187 18.608L14.809 18.5885C15.3497 18.1865 15.8347 17.8019 16.2846 17.2967C16.3336 17.2417 16.4786 17.0854 16.537 17.0583C17.1557 16.7715 18.056 16.3685 18.6353 16.0722Z" fill="#E9FFC4"/>
    <path d="M4.42259 22.3789C4.69899 22.4544 5.05454 22.9632 5.20441 23.1997C6.29443 24.921 6.69141 27.0084 6.95392 28.9999C6.96757 29.1035 7.05846 29.7088 7.01174 29.7705L6.93092 29.7764L5.47373 29.7766C5.42808 29.6275 5.3716 29.4746 5.3207 29.3268C4.69989 27.5236 4.24116 25.6136 4.27678 23.6962C4.28388 23.3139 4.30016 22.7375 4.42259 22.3789Z" fill="#048575"/>
    <path d="M7.19682 23.0977C7.51608 23.1928 7.8854 24.0035 8.01071 24.3058C8.70845 25.9898 9.03723 27.9517 8.95851 29.7698L8.75104 29.7755L7.73351 29.7727C7.28074 27.9 6.81685 25.8299 7.01546 23.8881C7.03822 23.6659 7.09325 23.2874 7.19682 23.0977Z" fill="#048575"/>
    <circle cx="1.69094" cy="1.69094" r="1.69094" transform="matrix(-1 0 0 1 29.8459 11.0137)" fill="#E9FFC4"/>
    <circle cx="1.21307" cy="1.21307" r="1.21307" transform="matrix(-1 0 0 1 29.3681 11.4916)" fill="#048575"/>
</svg>
