<svg width="354" height="718" viewBox="0 0 354 718" fill="none" xmlns="http://www.w3.org/2000/svg">
    <g clip-path="url(#clip0_1592_7677)">
        <path d="M27.8773 120.148L22.1338 123.561L39.6694 135.908L45.4961 131.58L27.8773 120.148Z" fill="#8DDEFD"/>
        <path d="M15.9907 633.769L12.0229 646.005L25.6464 654.051L30.7516 648.335L15.9907 633.769Z" fill="white"/>
        <path d="M350.962 312.597L346.662 312.402L340.641 318.923L342.971 323.723L350.962 312.597Z" fill="white"/>
        <path d="M341.457 63L345.342 70.8799L326.169 79.1483L325.143 70.547L341.457 63Z" fill="#FFDD99"/>
        <path d="M343.466 542.87L338.666 543.286L346.24 556.771L351.373 555.772L343.466 542.87Z" fill="#FFDD99"/>
        <path d="M166.394 705.621L159.79 700.849L156.211 717.94H161.289L166.394 705.621Z" fill="#048575"/>
        <path d="M50.5601 316.929L48.5717 309.028L34.8399 319.816L38.7284 323.081L50.5601 316.929Z" fill="#FF6F48"/>
        <path d="M46.3088 685.255C50.1091 685.255 53.1899 682.175 53.1899 678.374C53.1899 674.574 50.1091 671.493 46.3088 671.493C42.5085 671.493 39.4277 674.574 39.4277 678.374C39.4277 682.175 42.5085 685.255 46.3088 685.255Z" fill="white"/>
        <path d="M216.337 693.746C218.712 693.746 220.638 691.82 220.638 689.445C220.638 687.07 218.712 685.145 216.337 685.145C213.962 685.145 212.037 687.07 212.037 689.445C212.037 691.82 213.962 693.746 216.337 693.746Z" fill="white"/>
        <path d="M330.999 364.711C333.68 364.711 335.854 362.537 335.854 359.856C335.854 357.174 333.68 355 330.999 355C328.317 355 326.143 357.174 326.143 359.856C326.143 362.537 328.317 364.711 330.999 364.711Z" fill="white"/>
        <path d="M6.82557 279.116C10.5952 279.116 13.6511 276.06 13.6511 272.29C13.6511 268.521 10.5952 265.465 6.82557 265.465C3.05591 265.465 0 268.521 0 272.29C0 276.06 3.05591 279.116 6.82557 279.116Z" fill="white"/>
        <path d="M349.143 116C351.352 116 353.143 114.209 353.143 112C353.143 109.791 351.352 108 349.143 108C346.933 108 345.143 109.791 345.143 112C345.143 114.209 346.933 116 349.143 116Z" fill="white"/>
        <path d="M27.1356 58.2713C30.9053 58.2713 33.9612 55.2153 33.9612 51.4457C33.9612 47.676 30.9053 44.6201 27.1356 44.6201C23.366 44.6201 20.3101 47.676 20.3101 51.4457C20.3101 55.2153 23.366 58.2713 27.1356 58.2713Z" fill="white"/>
        <path d="M151.66 14.5945C155.69 14.5945 158.957 11.3274 158.957 7.29726C158.957 3.26709 155.69 0 151.66 0C147.63 0 144.363 3.26709 144.363 7.29726C144.363 11.3274 147.63 14.5945 151.66 14.5945Z" fill="#FF8B85"/>
        <path d="M349.194 29.1019C351.431 29.1019 353.245 27.2882 353.245 25.0509C353.245 22.8137 351.431 21 349.194 21C346.957 21 345.143 22.8137 345.143 25.0509C345.143 27.2882 346.957 29.1019 349.194 29.1019Z" fill="#8DDEFD"/>
        <path d="M35.1972 543.551L46.6858 551.002L58.713 539.211L54.2424 532.386L35.1972 543.551Z" fill="#8DDEFD"/>
    </g>
    <defs>
        <clipPath id="clip0_1592_7677">
            <rect width="353.244" height="717.94" fill="white"/>
        </clipPath>
    </defs>
</svg>
